<?xml version="1.0" encoding="UTF-8" standalone="no"?>
<!-- Created with Inkscape (http://www.inkscape.org/) -->

<svg
   width="87.858025mm"
   height="50.95694mm"
   viewBox="0 0 87.858025 50.95694"
   version="1.1"
   id="svg5"
   xml:space="preserve"
   inkscape:version="1.2.1 (9c6d41e410, 2022-07-14)"
   sodipodi:docname="set-ops.svg"
   xmlns:inkscape="http://www.inkscape.org/namespaces/inkscape"
   xmlns:sodipodi="http://sodipodi.sourceforge.net/DTD/sodipodi-0.dtd"
   xmlns="http://www.w3.org/2000/svg"
   xmlns:svg="http://www.w3.org/2000/svg"><sodipodi:namedview
     id="namedview7"
     pagecolor="#ffffff"
     bordercolor="#000000"
     borderopacity="0.25"
     inkscape:showpageshadow="2"
     inkscape:pageopacity="0.0"
     inkscape:pagecheckerboard="0"
     inkscape:deskcolor="#d1d1d1"
     inkscape:document-units="mm"
     showgrid="true"
     inkscape:zoom="0.73851712"
     inkscape:cx="621.51572"
     inkscape:cy="60.932914"
     inkscape:window-width="1920"
     inkscape:window-height="1009"
     inkscape:window-x="1912"
     inkscape:window-y="-8"
     inkscape:window-maximized="1"
     inkscape:current-layer="svg5"><inkscape:page
       x="0"
       y="0"
       width="87.858025"
       height="50.95694"
       id="page27"
       inkscape:export-filename="diff-after.pdf"
       inkscape:export-xdpi="96"
       inkscape:export-ydpi="96" /><inkscape:page
       x="175.14284"
       y="-107.07883"
       width="87.756363"
       height="50.84692"
       id="page29" /><inkscape:grid
       type="xygrid"
       id="grid203"
       originx="-44.857176"
       originy="-107.07883" /><inkscape:page
       x="272.8992"
       y="0"
       width="87.756348"
       height="50.84692"
       id="page3560" /></sodipodi:namedview><defs
     id="defs2" /><g
     inkscape:label="Layer 1"
     inkscape:groupmode="layer"
     id="layer1"
     transform="translate(-44.857177,-107.07883)" /><circle
     style="fill:none;fill-opacity:1;stroke:#000000;stroke-width:0.262726;stroke-opacity:1"
     id="path935"
     cx="62.379555"
     cy="25.478468"
     r="25.347105" /><g
     id="g3552"
     transform="matrix(0.35277777,0,0,0.35277778,272.8992,2.3295064e-6)"><g
       id="g3554"><path
         d="m 143.758,72.066 c 0,39.594 -32.098,71.692 -71.692,71.692 -39.593,0 -71.691,-32.098 -71.691,-71.692 0,-39.593 32.098,-71.691 71.691,-71.691 39.594,0 71.692,32.098 71.692,71.691 z"
         style="fill:#1317ef;fill-opacity:1;fill-rule:nonzero;stroke:#93a1a1;stroke-width:0.749999;stroke-linecap:butt;stroke-linejoin:miter;stroke-miterlimit:4;stroke-dasharray:none;stroke-opacity:1"
         id="path3556" /></g><path
       d="m 248.758,72.066 c 0,39.594 -32.098,71.692 -71.692,71.692 -39.593,0 -71.691,-32.098 -71.691,-71.692 0,-39.593 32.098,-71.691 71.691,-71.691 39.594,0 71.692,32.098 71.692,71.691 z"
       style="fill:#1317ef;fill-opacity:1;fill-rule:nonzero;stroke:none"
       id="path3558" /></g><path
     id="circle3825"
     style="fill:#1317ef;fill-opacity:1;stroke:#000000;stroke-width:0.262726;stroke-opacity:1"
     d="M 25.478548 0.13125814 A 25.347105 25.347105 0 0 0 0.13125814 25.478548 A 25.347105 25.347105 0 0 0 25.478548 50.825321 A 25.347105 25.347105 0 0 0 43.929102 42.849064 A 25.347105 25.347105 0 0 1 37.032365 25.478548 A 25.347105 25.347105 0 0 1 43.932202 8.1049316 A 25.347105 25.347105 0 0 0 25.478548 0.13125814 z " /></svg>
